<svg xmlns="http://www.w3.org/2000/svg" width="47.002" height="47" viewBox="0 0 47.002 47">
  <path id="logo_copy" data-name="logo copy" d="M1391.243,135h0a23.012,23.012,0,0,1-12.694-3.823,23.3,23.3,0,0,1-8.878-10.934,23.792,23.792,0,0,1-1.137-13.76,8.347,8.347,0,0,0,3.735,6.913,8.182,8.182,0,0,0,11.4-2.428,10.415,10.415,0,0,1,6.124-4.373,14.914,14.914,0,0,1,4.136-.588,14.534,14.534,0,0,1,13.822,9.91,13.831,13.831,0,0,1-.794,10.758,14.423,14.423,0,0,1-8.261,7.092A23.116,23.116,0,0,1,1391.243,135Zm13.047-3.712v0a16.725,16.725,0,0,0,4.636-6.541,16.38,16.38,0,0,0,1.044-7.7,15.5,15.5,0,0,0-2.49-6.9,16.616,16.616,0,0,0-6.039-5.4,15.257,15.257,0,0,0-7.281-1.948,15.6,15.6,0,0,0-8.478,2.7,16.876,16.876,0,0,0-3.209,2.7,8.625,8.625,0,0,1-6.969,4.188,5.745,5.745,0,0,1-3.178-.932c-2.651-1.748-3.486-5.6-1.986-9.165a23.805,23.805,0,0,1,1.921-3.622A23.184,23.184,0,0,1,1391.759,88a23.252,23.252,0,0,1,19.275,10.369,23.675,23.675,0,0,1,.181,25.975A23.189,23.189,0,0,1,1404.289,131.288Z" transform="translate(-1368 -88)" fill="#2accdd"/>
</svg>
