<?xml version="1.0" encoding="iso-8859-1"?>
<!-- Generator: Adobe Illustrator 19.0.0, SVG Export Plug-In . SVG Version: 6.00 Build 0)  -->
<svg version="1.1" id="Layer_1" xmlns="http://www.w3.org/2000/svg" xmlns:xlink="http://www.w3.org/1999/xlink" x="0px" y="0px"
	 viewBox="0 0 511.999 511.999" style="enable-background:new 0 0 511.999 511.999;" xml:space="preserve">
<g>
	<g>
		<path d="M288.188,61.901c-11.177,7.955-24.505,12.261-38.503,12.261c-13.997,0-27.327-4.306-38.505-12.261
			c-0.625,2.79-0.966,5.688-0.966,8.666c0,21.799,17.671,39.47,39.47,39.47c21.799,0,39.47-17.671,39.47-39.47
			C289.154,67.588,288.814,64.691,288.188,61.901z"/>
	</g>
</g>
<g>
	<g>
		<path d="M264.111,264.671c-1.065,4.416-2.923,8.718-5.631,12.693c-10.22,15.003-29.641,20.997-46.674,13.94
			c-1.526,1.036-13.969,9.494-13.969,9.494s-0.421,15.523-0.395,187.004c0,13.364,10.834,24.199,24.199,24.199
			c13.365,0,24.199-10.834,24.199-24.199V305.129h7.178v182.671c0,13.364,10.834,24.199,24.199,24.199
			c13.365,0,24.199-10.834,24.199-24.199c0-2.347,0-233.777,0-236.131L264.111,264.671z"/>
	</g>
</g>
<g>
	<g>
		<path d="M394.313,219.881l-24.51-10.161l-29.379,10.239c1.054,6.946-1.501,13.883-6.528,18.534l44.972,18.644
			c10.296,4.267,22.088-0.624,26.351-10.905C409.483,235.944,404.601,224.146,394.313,219.881z"/>
	</g>
</g>
<g>
	<g>
		<path d="M301.013,32.377c-0.139-1.404-0.9-2.673-2.075-3.457L260.513,3.281c-6.556-4.375-15.1-4.375-21.657,0l-38.425,25.639
			c-2.472,1.649-2.818,5.153-0.717,7.253l10.676,10.676c10.851,10.851,25.073,16.276,39.295,16.276s28.443-5.425,39.295-16.276
			C300.415,35.413,301.298,35.253,301.013,32.377z M249.685,44.065c-6.644,0-12.162-17.373-12.162-17.373
			c6.716-6.716,17.607-6.716,24.323,0C261.847,26.692,256.329,44.065,249.685,44.065z"/>
	</g>
</g>
<g>
	<g>
		<path d="M171.95,265.163l-60.982,21.125c-6.091,2.123-9.309,8.782-7.187,14.875l8.763,25.146
			c2.535,7.277,11.276,10.112,17.596,5.817l70.136-47.667L171.95,265.163z"/>
	</g>
</g>
<g>
	<g>
		<path d="M408.378,174.069c-1.605-4.606-6.64-7.037-11.243-5.432L384.615,173l-2.543-7.296c-1.605-4.606-6.64-7.037-11.243-5.432
			c-4.605,1.605-7.037,6.638-5.432,11.243l2.543,7.296l-122.731,42.773l3.092,2.106c9.747,6.64,15.49,16.954,16.655,27.829
			l57.637-20.087c4.605-1.605,7.036-6.638,5.432-11.244c-1.252-3.592-4.591-5.85-8.184-5.915l83.105-28.962
			C407.551,183.707,409.983,178.673,408.378,174.069z"/>
	</g>
</g>
<g>
	<g>
		<path d="M347.939,167.457c-0.127-25.341-20.847-45.958-46.189-45.958c-20.199,0-77.264,0-97.532,0
			c-17.253,0-33.268,9.318-41.793,24.318c-17.83,31.365-10.118,17.796-27.905,49.088c-5.191,9.131-2.502,20.718,6.179,26.632
			l74.501,50.747c9.201,6.269,21.748,3.891,28.018-5.314c6.269-9.205,3.891-21.75-5.314-28.019l-59.133-40.279l20.006-34.602v25.888
			l33.944,23.121l68.693-23.94v-21.464c0-1.707,1.381-3.092,3.089-3.097c1.707-0.004,3.097,1.373,3.106,3.081l0.097,19.288
			l40.261-14.031L347.939,167.457z"/>
	</g>
</g>
<g>
</g>
<g>
</g>
<g>
</g>
<g>
</g>
<g>
</g>
<g>
</g>
<g>
</g>
<g>
</g>
<g>
</g>
<g>
</g>
<g>
</g>
<g>
</g>
<g>
</g>
<g>
</g>
<g>
</g>
</svg>
